<svg id="visual" viewBox="0 0 900 600" width="900" height="600" xmlns="http://www.w3.org/2000/svg" xmlns:xlink="http://www.w3.org/1999/xlink" version="1.1"><rect x="0" y="0" width="900" height="600" fill="#001220"></rect><defs><linearGradient id="grad1_0" x1="33.3%" y1="0%" x2="100%" y2="100%"><stop offset="20%" stop-color="#fbae3c" stop-opacity="1"></stop><stop offset="80%" stop-color="#fbae3c" stop-opacity="1"></stop></linearGradient></defs><defs><linearGradient id="grad1_1" x1="33.3%" y1="0%" x2="100%" y2="100%"><stop offset="20%" stop-color="#fbae3c" stop-opacity="1"></stop><stop offset="80%" stop-color="#e1685e" stop-opacity="1"></stop></linearGradient></defs><defs><linearGradient id="grad1_2" x1="33.3%" y1="0%" x2="100%" y2="100%"><stop offset="20%" stop-color="#96446e" stop-opacity="1"></stop><stop offset="80%" stop-color="#e1685e" stop-opacity="1"></stop></linearGradient></defs><defs><linearGradient id="grad1_3" x1="33.3%" y1="0%" x2="100%" y2="100%"><stop offset="20%" stop-color="#96446e" stop-opacity="1"></stop><stop offset="80%" stop-color="#3d3056" stop-opacity="1"></stop></linearGradient></defs><defs><linearGradient id="grad1_4" x1="33.3%" y1="0%" x2="100%" y2="100%"><stop offset="20%" stop-color="#001220" stop-opacity="1"></stop><stop offset="80%" stop-color="#3d3056" stop-opacity="1"></stop></linearGradient></defs><defs><linearGradient id="grad2_0" x1="0%" y1="0%" x2="66.7%" y2="100%"><stop offset="20%" stop-color="#fbae3c" stop-opacity="1"></stop><stop offset="80%" stop-color="#fbae3c" stop-opacity="1"></stop></linearGradient></defs><defs><linearGradient id="grad2_1" x1="0%" y1="0%" x2="66.7%" y2="100%"><stop offset="20%" stop-color="#e1685e" stop-opacity="1"></stop><stop offset="80%" stop-color="#fbae3c" stop-opacity="1"></stop></linearGradient></defs><defs><linearGradient id="grad2_2" x1="0%" y1="0%" x2="66.7%" y2="100%"><stop offset="20%" stop-color="#e1685e" stop-opacity="1"></stop><stop offset="80%" stop-color="#96446e" stop-opacity="1"></stop></linearGradient></defs><defs><linearGradient id="grad2_3" x1="0%" y1="0%" x2="66.7%" y2="100%"><stop offset="20%" stop-color="#3d3056" stop-opacity="1"></stop><stop offset="80%" stop-color="#96446e" stop-opacity="1"></stop></linearGradient></defs><defs><linearGradient id="grad2_4" x1="0%" y1="0%" x2="66.7%" y2="100%"><stop offset="20%" stop-color="#3d3056" stop-opacity="1"></stop><stop offset="80%" stop-color="#001220" stop-opacity="1"></stop></linearGradient></defs><g transform="translate(900, 0)"><path d="M0 243.4C-46.3 239.2 -92.6 234.9 -121.7 210.8C-150.8 186.6 -162.7 142.5 -180.1 104C-197.6 65.5 -220.5 32.8 -243.4 0L0 0Z" fill="#18223c"></path><path d="M0 194.7C-37 191.3 -74.1 188 -97.3 168.6C-120.6 149.3 -130.2 114 -144.1 83.2C-158 52.4 -176.4 26.2 -194.7 0L0 0Z" fill="#683a67"></path><path d="M0 146C-27.8 143.5 -55.5 141 -73 126.5C-90.5 112 -97.6 85.5 -108.1 62.4C-118.5 39.3 -132.3 19.7 -146 0L0 0Z" fill="#c0526a"></path><path d="M0 97.3C-18.5 95.7 -37 94 -48.7 84.3C-60.3 74.6 -65.1 57 -72.1 41.6C-79 26.2 -88.2 13.1 -97.3 0L0 0Z" fill="#f6884d"></path><path d="M0 48.7C-9.3 47.8 -18.5 47 -24.3 42.2C-30.2 37.3 -32.5 28.5 -36 20.8C-39.5 13.1 -44.1 6.6 -48.7 0L0 0Z" fill="#fbae3c"></path></g><g transform="translate(0, 600)"><path d="M0 -243.4C47.1 -239.6 94.2 -235.9 121.7 -210.8C149.2 -185.7 157.1 -139.2 174.1 -100.5C191.1 -61.8 217.2 -30.9 243.4 0L0 0Z" fill="#18223c"></path><path d="M0 -194.7C37.7 -191.7 75.4 -188.7 97.3 -168.6C119.3 -148.5 125.6 -111.4 139.3 -80.4C152.9 -49.4 173.8 -24.7 194.7 0L0 0Z" fill="#683a67"></path><path d="M0 -146C28.3 -143.8 56.5 -141.5 73 -126.5C89.5 -111.4 94.2 -83.5 104.4 -60.3C114.7 -37.1 130.3 -18.5 146 0L0 0Z" fill="#c0526a"></path><path d="M0 -97.3C18.8 -95.9 37.7 -94.4 48.7 -84.3C59.7 -74.3 62.8 -55.7 69.6 -40.2C76.4 -24.7 86.9 -12.4 97.3 0L0 0Z" fill="#f6884d"></path><path d="M0 -48.7C9.4 -47.9 18.8 -47.2 24.3 -42.2C29.8 -37.1 31.4 -27.8 34.8 -20.1C38.2 -12.4 43.4 -6.2 48.7 0L0 0Z" fill="#fbae3c"></path></g></svg>