<svg id="visual" viewBox="0 0 1300 700" width="1300" height="700" xmlns="http://www.w3.org/2000/svg" xmlns:xlink="http://www.w3.org/1999/xlink" version="1.1"><rect x="0" y="0" width="1300" height="700" fill="#001220"></rect><defs><linearGradient id="grad1_0" x1="46.2%" y1="0%" x2="100%" y2="100%"><stop offset="12.857142857142858%" stop-color="#001220" stop-opacity="1"></stop><stop offset="87.14285714285715%" stop-color="#001220" stop-opacity="1"></stop></linearGradient></defs><defs><linearGradient id="grad2_0" x1="0%" y1="0%" x2="53.8%" y2="100%"><stop offset="12.857142857142858%" stop-color="#001220" stop-opacity="1"></stop><stop offset="87.14285714285715%" stop-color="#001220" stop-opacity="1"></stop></linearGradient></defs><g transform="translate(1300, 0)"><path d="M0 315C-51.2 300.5 -102.3 286 -151 261.5C-199.7 237.1 -245.9 202.7 -272.8 157.5C-299.7 112.3 -307.4 56.1 -315 0L0 0Z" fill="#33f5cc"></path></g><g transform="translate(0, 700)"><path d="M0 -315C53.6 -304.6 107.1 -294.3 155.5 -269.3C203.9 -244.4 247.1 -204.8 272.8 -157.5C298.5 -110.2 306.8 -55.1 315 0L0 0Z" fill="#33f5cc"></path></g></svg>