<svg id="visual" viewBox="0 0 1000 700" width="1000" height="700" xmlns="http://www.w3.org/2000/svg" xmlns:xlink="http://www.w3.org/1999/xlink" version="1.1"><rect x="0" y="0" width="1000" height="700" fill="#001220"></rect><defs><linearGradient id="grad1_0" x1="30%" y1="0%" x2="100%" y2="100%"><stop offset="21.42857142857143%" stop-color="#001220" stop-opacity="1"></stop><stop offset="78.57142857142858%" stop-color="#001220" stop-opacity="1"></stop></linearGradient></defs><defs><linearGradient id="grad2_0" x1="0%" y1="0%" x2="70%" y2="100%"><stop offset="21.42857142857143%" stop-color="#001220" stop-opacity="1"></stop><stop offset="78.57142857142858%" stop-color="#001220" stop-opacity="1"></stop></linearGradient></defs><g transform="translate(1000, 0)"><path d="M0 274.6C-43.7 260.5 -87.4 246.3 -130 225.2C-172.6 204.1 -213.9 176 -237.9 137.3C-261.8 98.6 -268.2 49.3 -274.6 0L0 0Z" fill="#33f5cc"></path></g><g transform="translate(0, 700)"><path d="M0 -274.6C46.4 -265.1 92.8 -255.5 135 -233.8C177.2 -212.1 215.3 -178.3 237.9 -137.3C260.4 -96.3 267.5 -48.2 274.6 0L0 0Z" fill="#33f5cc"></path></g></svg>