<svg id="visual" viewBox="0 0 1600 800" width="1600" height="800" xmlns="http://www.w3.org/2000/svg" xmlns:xlink="http://www.w3.org/1999/xlink" version="1.1"><rect x="0" y="0" width="1600" height="800" fill="#000"></rect><defs><linearGradient id="grad1_0" x1="50%" y1="0%" x2="100%" y2="100%"><stop offset="10%" stop-color="#33f5cc" stop-opacity="1"></stop><stop offset="90%" stop-color="#33f5cc" stop-opacity="1"></stop></linearGradient></defs><defs><linearGradient id="grad1_1" x1="50%" y1="0%" x2="100%" y2="100%"><stop offset="10%" stop-color="#33f5cc" stop-opacity="1"></stop><stop offset="90%" stop-color="#00a27e" stop-opacity="1"></stop></linearGradient></defs><defs><linearGradient id="grad1_2" x1="50%" y1="0%" x2="100%" y2="100%"><stop offset="10%" stop-color="#005639" stop-opacity="1"></stop><stop offset="90%" stop-color="#00a27e" stop-opacity="1"></stop></linearGradient></defs><defs><linearGradient id="grad1_3" x1="50%" y1="0%" x2="100%" y2="100%"><stop offset="10%" stop-color="#005639" stop-opacity="1"></stop><stop offset="90%" stop-color="#000000" stop-opacity="1"></stop></linearGradient></defs><defs><linearGradient id="grad2_0" x1="0%" y1="0%" x2="50%" y2="100%"><stop offset="10%" stop-color="#33f5cc" stop-opacity="1"></stop><stop offset="90%" stop-color="#33f5cc" stop-opacity="1"></stop></linearGradient></defs><defs><linearGradient id="grad2_1" x1="0%" y1="0%" x2="50%" y2="100%"><stop offset="10%" stop-color="#00a27e" stop-opacity="1"></stop><stop offset="90%" stop-color="#33f5cc" stop-opacity="1"></stop></linearGradient></defs><defs><linearGradient id="grad2_2" x1="0%" y1="0%" x2="50%" y2="100%"><stop offset="10%" stop-color="#00a27e" stop-opacity="1"></stop><stop offset="90%" stop-color="#005639" stop-opacity="1"></stop></linearGradient></defs><defs><linearGradient id="grad2_3" x1="0%" y1="0%" x2="50%" y2="100%"><stop offset="10%" stop-color="#000000" stop-opacity="1"></stop><stop offset="90%" stop-color="#005639" stop-opacity="1"></stop></linearGradient></defs><g transform="translate(1600, 0)"><path d="M0 360C-49.4 327.6 -98.7 295.3 -155.5 269.3C-212.3 243.4 -276.5 223.8 -311.8 180C-347.1 136.2 -353.5 68.1 -360 0L0 0Z" fill="#00331a"></path><path d="M0 270C-37 245.7 -74 221.5 -116.6 202C-159.2 182.5 -207.3 167.9 -233.8 135C-260.3 102.1 -265.2 51.1 -270 0L0 0Z" fill="#007b5b"></path><path d="M0 180C-24.7 163.8 -49.4 147.6 -77.7 134.7C-106.1 121.7 -138.2 111.9 -155.9 90C-173.5 68.1 -176.8 34 -180 0L0 0Z" fill="#00cba4"></path><path d="M0 90C-12.3 81.9 -24.7 73.8 -38.9 67.3C-53.1 60.8 -69.1 56 -77.9 45C-86.8 34 -88.4 17 -90 0L0 0Z" fill="#33f5cc"></path></g><g transform="translate(0, 800)"><path d="M0 -360C51.8 -331.8 103.5 -303.6 160 -277.1C216.5 -250.7 277.7 -225.9 311.8 -180C345.9 -134.1 352.9 -67 360 0L0 0Z" fill="#00331a"></path><path d="M0 -270C38.8 -248.9 77.6 -227.7 120 -207.8C162.4 -188 208.2 -169.4 233.8 -135C259.4 -100.6 264.7 -50.3 270 0L0 0Z" fill="#007b5b"></path><path d="M0 -180C25.9 -165.9 51.8 -151.8 80 -138.6C108.2 -125.3 138.8 -113 155.9 -90C172.9 -67 176.5 -33.5 180 0L0 0Z" fill="#00cba4"></path><path d="M0 -90C12.9 -83 25.9 -75.9 40 -69.3C54.1 -62.7 69.4 -56.5 77.9 -45C86.5 -33.5 88.2 -16.8 90 0L0 0Z" fill="#33f5cc"></path></g></svg>