<svg id="visual" viewBox="0 0 1100 700" width="1100" height="700" xmlns="http://www.w3.org/2000/svg" xmlns:xlink="http://www.w3.org/1999/xlink" version="1.1"><rect x="0" y="0" width="1100" height="700" fill="#001220"></rect><defs><linearGradient id="grad1_0" x1="36.4%" y1="0%" x2="100%" y2="100%"><stop offset="18.57142857142857%" stop-color="#001220" stop-opacity="1"></stop><stop offset="81.42857142857143%" stop-color="#001220" stop-opacity="1"></stop></linearGradient></defs><defs><linearGradient id="grad2_0" x1="0%" y1="0%" x2="63.6%" y2="100%"><stop offset="18.57142857142857%" stop-color="#001220" stop-opacity="1"></stop><stop offset="81.42857142857143%" stop-color="#001220" stop-opacity="1"></stop></linearGradient></defs><g transform="translate(1100, 0)"><path d="M0 293.4C-52.6 286.5 -105.3 279.6 -146.7 254.1C-188.1 228.6 -218.2 184.4 -240.8 139C-263.3 93.6 -278.3 46.8 -293.4 0L0 0Z" fill="#33f5cc"></path></g><g transform="translate(0, 700)"><path d="M0 -293.4C43.8 -273.3 87.7 -253.2 133.5 -231.2C179.3 -209.3 227.1 -185.5 254.1 -146.7C281 -107.8 287.2 -53.9 293.4 0L0 0Z" fill="#33f5cc"></path></g></svg>