<svg id="visual" viewBox="0 0 1600 800" width="1600" height="800" xmlns="http://www.w3.org/2000/svg" xmlns:xlink="http://www.w3.org/1999/xlink" version="1.1"><rect x="0" y="0" width="1600" height="800" fill="#001220"></rect><defs><linearGradient id="grad1_0" x1="50%" y1="0%" x2="100%" y2="100%"><stop offset="10%" stop-color="#fbae3c" stop-opacity="1"></stop><stop offset="90%" stop-color="#fbae3c" stop-opacity="1"></stop></linearGradient></defs><defs><linearGradient id="grad1_1" x1="50%" y1="0%" x2="100%" y2="100%"><stop offset="10%" stop-color="#fbae3c" stop-opacity="1"></stop><stop offset="90%" stop-color="#e1685e" stop-opacity="1"></stop></linearGradient></defs><defs><linearGradient id="grad1_2" x1="50%" y1="0%" x2="100%" y2="100%"><stop offset="10%" stop-color="#96446e" stop-opacity="1"></stop><stop offset="90%" stop-color="#e1685e" stop-opacity="1"></stop></linearGradient></defs><defs><linearGradient id="grad1_3" x1="50%" y1="0%" x2="100%" y2="100%"><stop offset="10%" stop-color="#96446e" stop-opacity="1"></stop><stop offset="90%" stop-color="#3d3056" stop-opacity="1"></stop></linearGradient></defs><defs><linearGradient id="grad1_4" x1="50%" y1="0%" x2="100%" y2="100%"><stop offset="10%" stop-color="#001220" stop-opacity="1"></stop><stop offset="90%" stop-color="#3d3056" stop-opacity="1"></stop></linearGradient></defs><defs><linearGradient id="grad2_0" x1="0%" y1="0%" x2="50%" y2="100%"><stop offset="10%" stop-color="#fbae3c" stop-opacity="1"></stop><stop offset="90%" stop-color="#fbae3c" stop-opacity="1"></stop></linearGradient></defs><defs><linearGradient id="grad2_1" x1="0%" y1="0%" x2="50%" y2="100%"><stop offset="10%" stop-color="#e1685e" stop-opacity="1"></stop><stop offset="90%" stop-color="#fbae3c" stop-opacity="1"></stop></linearGradient></defs><defs><linearGradient id="grad2_2" x1="0%" y1="0%" x2="50%" y2="100%"><stop offset="10%" stop-color="#e1685e" stop-opacity="1"></stop><stop offset="90%" stop-color="#96446e" stop-opacity="1"></stop></linearGradient></defs><defs><linearGradient id="grad2_3" x1="0%" y1="0%" x2="50%" y2="100%"><stop offset="10%" stop-color="#3d3056" stop-opacity="1"></stop><stop offset="90%" stop-color="#96446e" stop-opacity="1"></stop></linearGradient></defs><defs><linearGradient id="grad2_4" x1="0%" y1="0%" x2="50%" y2="100%"><stop offset="10%" stop-color="#3d3056" stop-opacity="1"></stop><stop offset="90%" stop-color="#001220" stop-opacity="1"></stop></linearGradient></defs><g transform="translate(1600, 0)"><path d="M0 360C-40.3 330.3 -80.7 300.7 -114.8 277.2C-149 253.6 -176.9 236.2 -216.4 216.4C-255.8 196.5 -306.7 174.2 -332.6 137.8C-358.4 101.3 -359.2 50.6 -360 0L0 0Z" fill="#18223c"></path><path d="M0 288C-32.3 264.3 -64.5 240.6 -91.8 221.7C-119.2 202.9 -141.5 189 -173.1 173.1C-204.7 157.2 -245.4 139.4 -266.1 110.2C-286.8 81 -287.4 40.5 -288 0L0 0Z" fill="#683a67"></path><path d="M0 216C-24.2 198.2 -48.4 180.4 -68.9 166.3C-89.4 152.2 -106.2 141.7 -129.8 129.8C-153.5 117.9 -184 104.5 -199.6 82.7C-215.1 60.8 -215.5 30.4 -216 0L0 0Z" fill="#c0526a"></path><path d="M0 144C-16.1 132.1 -32.3 120.3 -45.9 110.9C-59.6 101.5 -70.8 94.5 -86.5 86.5C-102.3 78.6 -122.7 69.7 -133 55.1C-143.4 40.5 -143.7 20.3 -144 0L0 0Z" fill="#f6884d"></path><path d="M0 72C-8.1 66.1 -16.1 60.1 -23 55.4C-29.8 50.7 -35.4 47.2 -43.3 43.3C-51.2 39.3 -61.3 34.8 -66.5 27.6C-71.7 20.3 -71.8 10.1 -72 0L0 0Z" fill="#fbae3c"></path></g><g transform="translate(0, 800)"><path d="M0 -360C42.7 -345.8 85.3 -331.5 131.3 -316.9C177.2 -302.3 226.4 -287.3 254.6 -254.6C282.7 -221.8 289.9 -171.3 304 -125.9C318 -80.5 339 -40.3 360 0L0 0Z" fill="#18223c"></path><path d="M0 -288C34.1 -276.6 68.3 -265.2 105 -253.5C141.8 -241.8 181.1 -229.8 203.6 -203.6C226.2 -177.4 231.9 -137 243.2 -100.7C254.4 -64.4 271.2 -32.2 288 0L0 0Z" fill="#683a67"></path><path d="M0 -216C25.6 -207.5 51.2 -198.9 78.8 -190.1C106.3 -181.4 135.8 -172.4 152.7 -152.7C169.6 -133.1 173.9 -102.8 182.4 -75.5C190.8 -48.3 203.4 -24.2 216 0L0 0Z" fill="#c0526a"></path><path d="M0 -144C17.1 -138.3 34.1 -132.6 52.5 -126.8C70.9 -120.9 90.6 -114.9 101.8 -101.8C113.1 -88.7 116 -68.5 121.6 -50.4C127.2 -32.2 135.6 -16.1 144 0L0 0Z" fill="#f6884d"></path><path d="M0 -72C8.5 -69.2 17.1 -66.3 26.3 -63.4C35.4 -60.5 45.3 -57.5 50.9 -50.9C56.5 -44.4 58 -34.3 60.8 -25.2C63.6 -16.1 67.8 -8.1 72 0L0 0Z" fill="#fbae3c"></path></g></svg>