<svg id="visual" viewBox="0 0 1600 800" width="1600" height="800" xmlns="http://www.w3.org/2000/svg" xmlns:xlink="http://www.w3.org/1999/xlink" version="1.1"><rect x="0" y="0" width="1600" height="800" fill="#000"></rect><defs><linearGradient id="grad1_0" x1="50%" y1="0%" x2="100%" y2="100%"><stop offset="10%" stop-color="#000000" stop-opacity="1"></stop><stop offset="90%" stop-color="#000000" stop-opacity="1"></stop></linearGradient></defs><defs><linearGradient id="grad2_0" x1="0%" y1="0%" x2="50%" y2="100%"><stop offset="10%" stop-color="#000000" stop-opacity="1"></stop><stop offset="90%" stop-color="#000000" stop-opacity="1"></stop></linearGradient></defs><g transform="translate(1600, 0)"><path d="M0 360C-66 352.3 -132 344.7 -180 311.8C-228 278.9 -257.9 220.7 -284.9 164.5C-311.9 108.3 -336 54.2 -360 0L0 0Z" fill="#33f5cc"></path></g><g transform="translate(0, 800)"><path d="M0 -360C69.5 -354.3 138.9 -348.7 180 -311.8C221.1 -274.9 233.7 -206.7 258.9 -149.5C284.2 -92.3 322.1 -46.2 360 0L0 0Z" fill="#33f5cc"></path></g></svg>