<svg id="visual" viewBox="0 0 1200 700" width="1200" height="700" xmlns="http://www.w3.org/2000/svg" xmlns:xlink="http://www.w3.org/1999/xlink" version="1.1"><rect x="0" y="0" width="1200" height="700" fill="#001220"></rect><defs><linearGradient id="grad1_0" x1="41.7%" y1="0%" x2="100%" y2="100%"><stop offset="15.714285714285717%" stop-color="#001220" stop-opacity="1"></stop><stop offset="84.28571428571428%" stop-color="#001220" stop-opacity="1"></stop></linearGradient></defs><defs><linearGradient id="grad2_0" x1="0%" y1="0%" x2="58.3%" y2="100%"><stop offset="15.714285714285717%" stop-color="#001220" stop-opacity="1"></stop><stop offset="84.28571428571428%" stop-color="#001220" stop-opacity="1"></stop></linearGradient></defs><g transform="translate(1200, 0)"><path d="M0 312.6C-56.4 305.4 -112.7 298.2 -156.3 270.7C-199.9 243.2 -230.7 195.5 -254.6 147C-278.5 98.5 -295.6 49.3 -312.6 0L0 0Z" fill="#33f5cc"></path></g><g transform="translate(0, 700)"><path d="M0 -312.6C59.9 -307.4 119.9 -302.3 156.3 -270.7C192.7 -239.1 205.6 -181 227.8 -131.5C249.9 -82 281.2 -41 312.6 0L0 0Z" fill="#33f5cc"></path></g></svg>